<svg xmlns="http://www.w3.org/2000/svg" width="238" height="50" viewBox="0 0 238 50" fill="none"><g id="Logo"><g id="Group 1707479285"><path id="Union" d="M9.5127 25.6094C10.9943 25.6095 12.1953 26.8113 12.1953 28.293V35.0342C12.1953 36.5157 13.3964 37.7165 14.8779 37.7168H21.708C23.1896 37.717 24.3906 38.9188 24.3906 40.4004V47.3174C24.3905 48.7989 23.1895 49.9998 21.708 50H14.8779C13.3965 49.9998 12.1955 48.7988 12.1953 47.3174V40.5752C12.1951 39.0937 10.9942 37.8927 9.5127 37.8926H2.68359C1.20195 37.8926 0.000110311 36.6916 0 35.21V28.293C0 26.8113 1.20189 25.6094 2.68359 25.6094H9.5127ZM47.3174 25.6094C48.799 25.6095 50 26.8113 50 28.293V35.21C49.9999 36.6915 48.7989 37.8924 47.3174 37.8926H40.4883C39.0067 37.8926 37.8049 39.0936 37.8047 40.5752V47.3174C37.8045 48.799 36.6037 50 35.1221 50H28.293C26.8113 50 25.6095 48.799 25.6094 47.3174V40.4004C25.6094 38.9186 26.8112 37.7168 28.293 37.7168H35.1221C36.6038 37.7168 37.8047 36.5159 37.8047 35.0342V28.293C37.8047 26.8113 39.0066 25.6094 40.4883 25.6094H47.3174ZM27.502 3.18457V3.18555H41.7695C45.2643 3.1856 48.0977 6.01889 48.0977 9.51367V22.5518H48.0986V23.4873C48.0981 23.8909 47.77 24.2187 47.3662 24.2188H42.8066C42.403 24.2186 42.0758 23.8908 42.0752 23.4873V13.0615L28.873 25.6982C28.2892 26.2565 27.3634 26.2358 26.8047 25.6523L25.1318 23.9053C24.5731 23.3215 24.5932 22.3948 25.1768 21.8359L38.4336 9.14844H27.502V9.16797H26.8447C26.4409 9.16794 26.1128 8.84023 26.1123 8.43652V3.90625C26.1123 3.49749 26.4477 3.16719 26.8564 3.17383L27.502 3.18457ZM21.708 0C23.1895 0.000187874 24.3905 1.20113 24.3906 2.68262V9.59961C24.3906 11.0812 23.1896 12.283 21.708 12.2832H14.8779C13.3964 12.2835 12.1953 13.4843 12.1953 14.9658V21.707C12.1953 23.1887 10.9943 24.3905 9.5127 24.3906H2.68359C1.20189 24.3906 0 23.1887 0 21.707V14.79C0.000110311 13.3084 1.20195 12.1074 2.68359 12.1074H9.5127C10.9942 12.1073 12.1951 10.9063 12.1953 9.4248V2.68262C12.1955 1.20117 13.3965 0.00024985 14.8779 0H21.708Z" fill="#FF5C00"></path><g id="The"><path id="Vector" d="M93.4195 10.2758C93.4195 10.6513 93.3979 11.0486 93.3545 11.4675H83.8645C83.9368 12.6375 84.334 13.5547 85.0562 14.2191C85.7929 14.8691 86.6812 15.1941 87.7212 15.1941C88.5734 15.1941 89.2812 14.9991 89.8445 14.6091C90.4223 14.2047 90.8268 13.6702 91.0579 13.0058H93.1812C92.8634 14.1469 92.2279 15.0786 91.2745 15.8008C90.3212 16.5086 89.1368 16.8625 87.7212 16.8625C86.5945 16.8625 85.5834 16.6097 84.6879 16.1041C83.8068 15.5986 83.1134 14.8836 82.6079 13.9591C82.1023 13.0202 81.8495 11.9369 81.8495 10.7091C81.8495 9.48134 82.0951 8.40523 82.5862 7.48079C83.0773 6.55634 83.7634 5.84857 84.6445 5.35746C85.5401 4.8519 86.5657 4.59912 87.7212 4.59912C88.8479 4.59912 89.8445 4.84468 90.7112 5.33579C91.5779 5.8269 92.2423 6.50579 92.7045 7.37245C93.1812 8.22468 93.4195 9.19246 93.4195 10.2758ZM91.3829 9.86412C91.3829 9.11301 91.2168 8.47023 90.8845 7.93579C90.5523 7.3869 90.0973 6.97523 89.5195 6.70079C88.9562 6.4119 88.3279 6.26746 87.6345 6.26746C86.6379 6.26746 85.7857 6.58523 85.0779 7.22079C84.3845 7.85634 83.9873 8.73746 83.8862 9.86412H91.3829Z" fill="white"></path><path id="Vector_2" d="M74.6208 4.57712C75.5164 4.57712 76.3253 4.77212 77.0475 5.16212C77.7697 5.53768 78.333 6.10823 78.7375 6.87379C79.1564 7.63934 79.3658 8.57101 79.3658 9.66879V16.6671H77.4158V9.95046C77.4158 8.76601 77.1197 7.86323 76.5275 7.24212C75.9353 6.60657 75.1264 6.28879 74.1008 6.28879C73.0608 6.28879 72.2303 6.61379 71.6091 7.26379C71.0025 7.91379 70.6991 8.8599 70.6991 10.1021V16.6671H68.7275V0.633789H70.6991V6.48379C71.0891 5.87712 71.6236 5.40768 72.3025 5.07545C72.9958 4.74323 73.7686 4.57712 74.6208 4.57712Z" fill="white"></path><path id="Vector_3" d="M63.2399 6.41871V13.417C63.2399 13.9948 63.3627 14.4065 63.6083 14.652C63.8538 14.8832 64.2799 14.9987 64.8866 14.9987H66.3383V16.667H64.5616C63.4638 16.667 62.6405 16.4143 62.0916 15.9087C61.5427 15.4032 61.2683 14.5726 61.2683 13.417V6.41871H59.7299V4.79371H61.2683V1.80371H63.2399V4.79371H66.3383V6.41871H63.2399Z" fill="white"></path></g><g id="Mad"><path id="Vector_4" d="M111.72 40.4331C111.72 38.6117 112.093 36.9988 112.839 35.5943C113.607 34.1899 114.639 33.1036 115.933 32.3356C117.25 31.5456 118.709 31.1506 120.311 31.1506C121.496 31.1506 122.659 31.4139 123.801 31.9406C124.964 32.4453 125.885 33.1256 126.566 33.9814V25.2256H130.351V49.5839H126.566V46.8518C125.951 47.7296 125.095 48.4538 123.998 49.0243C122.923 49.5949 121.683 49.8802 120.278 49.8802C118.698 49.8802 117.25 49.4852 115.933 48.6952C114.639 47.8832 113.607 46.7641 112.839 45.3377C112.093 43.8893 111.72 42.2545 111.72 40.4331ZM126.566 40.4989C126.566 39.2481 126.302 38.1618 125.776 37.2402C125.271 36.3185 124.602 35.6163 123.768 35.1335C122.934 34.6507 122.034 34.4093 121.068 34.4093C120.103 34.4093 119.203 34.6507 118.369 35.1335C117.535 35.5943 116.855 36.2856 116.328 37.2073C115.824 38.107 115.571 39.1823 115.571 40.4331C115.571 41.6839 115.824 42.7811 116.328 43.7248C116.855 44.6684 117.535 45.3925 118.369 45.8973C119.225 46.38 120.125 46.6214 121.068 46.6214C122.034 46.6214 122.934 46.38 123.768 45.8973C124.602 45.4145 125.271 44.7123 125.776 43.7906C126.302 42.847 126.566 41.7498 126.566 40.4989Z" fill="white"></path><path id="Vector_5" d="M89.4111 40.4329C89.4111 38.6115 89.7841 36.9986 90.5302 35.5941C91.2983 34.1897 92.3297 33.1034 93.6244 32.3354C94.9411 31.5454 96.3894 31.1504 97.9694 31.1504C99.3958 31.1504 100.636 31.4357 101.689 32.0062C102.764 32.5548 103.62 33.2461 104.256 34.08V31.4466H108.042V49.5837H104.256V46.8846C103.62 47.7404 102.753 48.4536 101.656 49.0241C100.559 49.5947 99.308 49.88 97.9036 49.88C96.3455 49.88 94.9191 49.485 93.6244 48.695C92.3297 47.883 91.2983 46.7639 90.5302 45.3375C89.7841 43.8891 89.4111 42.2543 89.4111 40.4329ZM104.256 40.4987C104.256 39.2479 103.993 38.1616 103.466 37.24C102.962 36.3183 102.292 35.6161 101.459 35.1333C100.625 34.6505 99.725 34.4091 98.7594 34.4091C97.7939 34.4091 96.8941 34.6505 96.0602 35.1333C95.2264 35.5941 94.5461 36.2854 94.0194 37.2071C93.5147 38.1068 93.2623 39.1821 93.2623 40.4329C93.2623 41.6837 93.5147 42.7809 94.0194 43.7246C94.5461 44.6682 95.2264 45.3923 96.0602 45.8971C96.9161 46.3798 97.8158 46.6212 98.7594 46.6212C99.725 46.6212 100.625 46.3798 101.459 45.8971C102.292 45.4143 102.962 44.7121 103.466 43.7904C103.993 42.8468 104.256 41.7496 104.256 40.4987Z" fill="white"></path><path id="Vector_6" d="M85.7302 26.7065V49.5836H81.9777V33.9153L74.9994 49.5836H72.3989L65.3877 33.9153V49.5836H61.6352V26.7065H65.6839L73.7156 44.6461L81.7144 26.7065H85.7302Z" fill="white"></path></g><g id="Brains"><path id="Vector_7" d="M230.2 49.8795C228.773 49.8795 227.49 49.6271 226.348 49.1224C225.229 48.5957 224.341 47.8935 223.682 47.0157C223.024 46.116 222.673 45.1175 222.629 44.0203H226.513C226.579 44.7884 226.941 45.4357 227.599 45.9624C228.28 46.4671 229.124 46.7195 230.134 46.7195C231.187 46.7195 231.999 46.522 232.57 46.127C233.162 45.71 233.458 45.1834 233.458 44.547C233.458 43.8667 233.129 43.362 232.471 43.0328C231.835 42.7037 230.814 42.3416 229.41 41.9466C228.049 41.5735 226.941 41.2114 226.085 40.8603C225.229 40.5092 224.483 39.9716 223.847 39.2474C223.232 38.5232 222.925 37.5687 222.925 36.3837C222.925 35.4181 223.21 34.5403 223.781 33.7503C224.351 32.9384 225.163 32.302 226.217 31.8412C227.292 31.3803 228.521 31.1499 229.903 31.1499C231.966 31.1499 233.623 31.6766 234.874 32.7299C236.147 33.7613 236.827 35.1767 236.915 36.9762H233.162C233.096 36.1642 232.767 35.5168 232.175 35.0341C231.582 34.5513 230.781 34.3099 229.772 34.3099C228.784 34.3099 228.027 34.4964 227.501 34.8695C226.974 35.2425 226.711 35.7363 226.711 36.3507C226.711 36.8335 226.886 37.2395 227.237 37.5687C227.588 37.8978 228.016 38.1612 228.521 38.3587C229.026 38.5342 229.772 38.7646 230.759 39.0499C232.076 39.401 233.151 39.7631 233.985 40.1362C234.841 40.4873 235.576 41.0139 236.191 41.7162C236.805 42.4184 237.123 43.351 237.145 44.5141C237.145 45.5455 236.86 46.4671 236.289 47.2791C235.719 48.091 234.907 48.7274 233.853 49.1882C232.822 49.6491 231.604 49.8795 230.2 49.8795Z" fill="white"></path><path id="Vector_8" d="M211.391 31.1499C212.817 31.1499 214.09 31.4462 215.209 32.0387C216.35 32.6312 217.239 33.5089 217.875 34.672C218.511 35.835 218.83 37.2395 218.83 38.8853V49.5832H215.11V39.4449C215.11 37.821 214.704 36.5812 213.892 35.7253C213.08 34.8475 211.972 34.4087 210.568 34.4087C209.163 34.4087 208.044 34.8475 207.21 35.7253C206.398 36.5812 205.992 37.821 205.992 39.4449V49.5832H202.24V31.4462H205.992V33.5199C206.607 32.7738 207.386 32.1923 208.329 31.7753C209.295 31.3584 210.315 31.1499 211.391 31.1499Z" fill="white"></path><path id="Vector_9" d="M195.47 29.0431C194.789 29.0431 194.219 28.8127 193.758 28.3519C193.297 27.8911 193.067 27.3205 193.067 26.6402C193.067 25.9599 193.297 25.3894 193.758 24.9286C194.219 24.4677 194.789 24.2373 195.47 24.2373C196.128 24.2373 196.688 24.4677 197.148 24.9286C197.609 25.3894 197.84 25.9599 197.84 26.6402C197.84 27.3205 197.609 27.8911 197.148 28.3519C196.688 28.8127 196.128 29.0431 195.47 29.0431ZM197.313 31.4461V49.5831H193.561V31.4461H197.313Z" fill="white"></path><path id="Vector_10" d="M170.001 40.4324C170.001 38.611 170.374 36.9981 171.12 35.5937C171.888 34.1892 172.92 33.103 174.214 32.3349C175.531 31.5449 176.979 31.1499 178.559 31.1499C179.986 31.1499 181.225 31.4352 182.279 32.0057C183.354 32.5543 184.21 33.2456 184.846 34.0795V31.4462H188.632V49.5832H184.846V46.8841C184.21 47.7399 183.343 48.4531 182.246 49.0237C181.149 49.5942 179.898 49.8795 178.493 49.8795C176.935 49.8795 175.509 49.4845 174.214 48.6945C172.92 47.8825 171.888 46.7634 171.12 45.337C170.374 43.8887 170.001 42.2538 170.001 40.4324ZM184.846 40.4982C184.846 39.2474 184.583 38.1612 184.056 37.2395C183.552 36.3178 182.882 35.6156 182.048 35.1328C181.215 34.65 180.315 34.4087 179.349 34.4087C178.384 34.4087 177.484 34.65 176.65 35.1328C175.816 35.5937 175.136 36.2849 174.609 37.2066C174.105 38.1063 173.852 39.1816 173.852 40.4324C173.852 41.6832 174.105 42.7805 174.609 43.7241C175.136 44.6677 175.816 45.3918 176.65 45.8966C177.506 46.3793 178.406 46.6207 179.349 46.6207C180.315 46.6207 181.215 46.3793 182.048 45.8966C182.882 45.4138 183.552 44.7116 184.056 43.7899C184.583 42.8463 184.846 41.7491 184.846 40.4982Z" fill="white"></path><path id="Vector_11" d="M162.371 34.0795C162.92 33.1578 163.644 32.4446 164.544 31.9399C165.465 31.4132 166.552 31.1499 167.802 31.1499V35.0341H166.848C165.377 35.0341 164.258 35.4071 163.49 36.1532C162.744 36.8993 162.371 38.1941 162.371 40.0374V49.5832H158.619V31.4462H162.371V34.0795Z" fill="white"></path><path id="Vector_12" d="M150.13 37.8319C151.359 38.0513 152.401 38.6987 153.257 39.774C154.113 40.8493 154.541 42.0672 154.541 43.4277C154.541 44.5908 154.234 45.6441 153.619 46.5877C153.027 47.5094 152.16 48.2445 151.019 48.7931C149.878 49.3198 148.55 49.5831 147.036 49.5831H137.885V26.7061H146.608C148.166 26.7061 149.505 26.9694 150.624 27.4961C151.743 28.0227 152.588 28.7359 153.159 29.6356C153.729 30.5134 154.014 31.5009 154.014 32.5981C154.014 33.9148 153.663 35.012 152.961 35.8898C152.259 36.7676 151.315 37.4149 150.13 37.8319ZM141.638 36.3177H146.279C147.508 36.3177 148.462 36.0434 149.143 35.4948C149.845 34.9242 150.196 34.1123 150.196 33.059C150.196 32.0276 149.845 31.2266 149.143 30.6561C148.462 30.0636 147.508 29.7673 146.279 29.7673H141.638V36.3177ZM146.707 46.5219C147.98 46.5219 148.978 46.2147 149.702 45.6002C150.426 44.9858 150.789 44.1299 150.789 43.0327C150.789 41.9136 150.404 41.0248 149.636 40.3665C148.868 39.7081 147.848 39.379 146.575 39.379H141.638V46.5219H146.707Z" fill="white"></path></g></g></g></svg>