<svg xmlns="http://www.w3.org/2000/svg" width="475" height="100" viewBox="0 0 475 100" fill="none"><g clip-path="url(#clip0_582_26)"><path d="M19.1699 51.2197C22.1331 51.2198 24.5349 53.6218 24.5352 56.585V70.0684C24.5352 73.0317 26.9379 75.4345 29.9014 75.4346H43.5596C46.5229 75.4346 48.9256 77.8365 48.9258 80.7998V94.6338C48.9258 97.5973 46.523 100 43.5596 100H29.9014C26.9379 100 24.5352 97.5972 24.5352 94.6338V81.1514C24.5352 78.1879 22.1333 75.7853 19.1699 75.7852H5.51074C2.54767 75.7849 0.145728 73.383 0.145508 70.4199V56.585C0.145728 53.6219 2.54767 51.22 5.51074 51.2197H19.1699ZM94.7783 51.2197C97.7416 51.2197 100.144 53.6217 100.145 56.585V70.4199C100.144 73.3831 97.7416 75.7852 94.7783 75.7852H81.1201C78.1567 75.7852 75.7539 78.1879 75.7539 81.1514V94.6338C75.7539 97.5972 73.352 99.9998 70.3887 100H56.7295C53.7662 99.9998 51.3643 97.5972 51.3643 94.6338V80.7998C51.3644 77.8366 53.7663 75.4348 56.7295 75.4346H70.3887C73.352 75.4344 75.7539 73.0317 75.7539 70.0684V56.585C75.7541 53.6217 78.1568 51.2197 81.1201 51.2197H94.7783ZM55.1455 6.36719L83.6816 6.36816C90.6711 6.36827 96.3368 12.0339 96.3369 19.0234V45.1016L96.3379 46.9717C96.3375 47.7795 95.6829 48.4354 94.875 48.4355H85.7559C84.948 48.4354 84.2923 47.7795 84.292 46.9717V46.585L84.291 26.125L57.8887 51.3945C56.7209 52.5116 54.8685 52.4712 53.751 51.3037L50.4062 47.8096C49.2887 46.6419 49.3297 44.7886 50.4971 43.6709L77.0127 18.293H55.1455V18.334H53.8311C53.0232 18.3338 52.3675 17.6779 52.3672 16.8701V7.80859C52.3674 7.09233 52.8823 6.49721 53.5596 6.37012V6.36816H53.5781C53.6677 6.35257 53.7602 6.3442 53.8545 6.3457L55.1455 6.36719ZM43.5596 0C46.523 0 48.9258 2.40273 48.9258 5.36621V19.2002C48.9256 22.1635 46.5229 24.5654 43.5596 24.5654H29.9014C26.9379 24.5655 24.5352 26.9683 24.5352 29.9316V43.415C24.5349 46.3782 22.1331 48.7802 19.1699 48.7803H5.51074C2.54767 48.78 0.145728 46.3781 0.145508 43.415V29.5801C0.145728 26.617 2.54767 24.2151 5.51074 24.2148H19.1699C22.1333 24.2147 24.5352 21.8121 24.5352 18.8486V5.36621C24.5352 2.40276 26.9379 4.00572e-05 29.9014 0H43.5596Z" fill="#FF5C00"></path><path d="M186.983 20.5499C186.983 21.301 186.94 22.0954 186.853 22.9332H167.873C168.018 25.2732 168.812 27.1076 170.257 28.4365C171.73 29.7365 173.507 30.3865 175.587 30.3865C177.291 30.3865 178.707 29.9965 179.833 29.2165C180.989 28.4076 181.798 27.3388 182.26 26.0099H186.507C185.871 28.2921 184.6 30.1554 182.693 31.5999C180.787 33.0154 178.418 33.7232 175.587 33.7232C173.333 33.7232 171.311 33.2176 169.52 32.2065C167.758 31.1954 166.371 29.7654 165.36 27.9165C164.349 26.0388 163.843 23.8721 163.843 21.4165C163.843 18.961 164.334 16.8088 165.317 14.9599C166.299 13.111 167.671 11.6954 169.433 10.7132C171.224 9.70209 173.275 9.19653 175.587 9.19653C177.84 9.19653 179.833 9.68765 181.567 10.6699C183.3 11.6521 184.629 13.0099 185.553 14.7432C186.507 16.4476 186.983 18.3832 186.983 20.5499ZM182.91 19.7265C182.91 18.2243 182.578 16.9388 181.913 15.8699C181.249 14.7721 180.339 13.9488 179.183 13.3999C178.057 12.8221 176.8 12.5332 175.413 12.5332C173.42 12.5332 171.715 13.1688 170.3 14.4399C168.913 15.711 168.119 17.4732 167.917 19.7265H182.91Z" fill="black"></path><path d="M149.386 9.15278C151.177 9.15278 152.795 9.54278 154.239 10.3228C155.683 11.0739 156.81 12.215 157.619 13.7461C158.457 15.2772 158.876 17.1406 158.876 19.3361V33.3328H154.976V19.8994C154.976 17.5306 154.383 15.725 153.199 14.4828C152.015 13.2117 150.397 12.5761 148.346 12.5761C146.266 12.5761 144.605 13.2261 143.362 14.5261C142.149 15.8261 141.542 17.7183 141.542 20.2028V33.3328H137.599V1.26611H141.542V12.9661C142.322 11.7528 143.391 10.8139 144.749 10.1494C146.136 9.485 147.681 9.15278 149.386 9.15278Z" fill="black"></path><path d="M126.624 12.8364V26.8331C126.624 27.9887 126.87 28.812 127.361 29.3031C127.852 29.7653 128.704 29.9964 129.917 29.9964H132.821V33.3331H129.267C127.072 33.3331 125.425 32.8276 124.327 31.8165C123.23 30.8053 122.681 29.1442 122.681 26.8331V12.8364H119.604V9.58644H122.681V3.60645H126.624V9.58644H132.821V12.8364H126.624Z" fill="black"></path><path d="M223.585 80.8647C223.585 77.2219 224.331 73.9961 225.823 71.1872C227.359 68.3783 229.422 66.2058 232.012 64.6697C234.645 63.0897 237.563 62.2997 240.767 62.2997C243.137 62.2997 245.463 62.8264 247.746 63.8797C250.072 64.8892 251.915 66.2497 253.276 67.9614V50.4497H260.847V99.1664H253.276V93.7022C252.047 95.4578 250.335 96.9061 248.141 98.0472C245.99 99.1883 243.51 99.7589 240.702 99.7589C237.542 99.7589 234.645 98.9689 232.012 97.3889C229.422 95.765 227.359 93.5267 225.823 90.6739C224.331 87.7772 223.585 84.5075 223.585 80.8647ZM253.276 80.9964C253.276 78.4947 252.749 76.3222 251.696 74.4789C250.686 72.6355 249.348 71.2311 247.68 70.2655C246.012 69.3 244.213 68.8172 242.282 68.8172C240.35 68.8172 238.551 69.3 236.883 70.2655C235.215 71.1872 233.855 72.5697 232.802 74.413C231.792 76.2125 231.287 78.363 231.287 80.8647C231.287 83.3664 231.792 85.5608 232.802 87.448C233.855 89.3353 235.215 90.7836 236.883 91.793C238.595 92.7586 240.394 93.2414 242.282 93.2414C244.213 93.2414 246.012 92.7586 247.68 91.793C249.348 90.8275 250.686 89.423 251.696 87.5797C252.749 85.6925 253.276 83.498 253.276 80.9964Z" fill="black"></path><path d="M178.967 80.8646C178.967 77.2218 179.713 73.9959 181.206 71.1871C182.742 68.3782 184.805 66.2057 187.394 64.6696C190.027 63.0896 192.924 62.2996 196.084 62.2996C198.937 62.2996 201.416 62.8701 203.523 64.0112C205.674 65.1084 207.385 66.491 208.658 68.1587V62.8921H216.229V99.1662H208.658V93.7679C207.385 95.4796 205.652 96.906 203.457 98.0471C201.263 99.1882 198.761 99.7587 195.952 99.7587C192.836 99.7587 189.983 98.9687 187.394 97.3887C184.805 95.7648 182.742 93.5265 181.206 90.6737C179.713 87.7771 178.967 84.5073 178.967 80.8646ZM208.658 80.9962C208.658 78.4946 208.131 76.3221 207.078 74.4787C206.069 72.6354 204.73 71.231 203.062 70.2654C201.395 69.2998 199.595 68.8171 197.664 68.8171C195.733 68.8171 193.933 69.2998 192.266 70.2654C190.598 71.1871 189.237 72.5696 188.184 74.4129C187.175 76.2123 186.67 78.3629 186.67 80.8646C186.67 83.3662 187.175 85.5607 188.184 87.4479C189.237 89.3351 190.598 90.7835 192.266 91.7929C193.977 92.7585 195.777 93.2412 197.664 93.2412C199.595 93.2412 201.395 92.7585 203.062 91.7929C204.73 90.8273 206.069 89.4229 207.078 87.5796C208.131 85.6923 208.658 83.4979 208.658 80.9962Z" fill="black"></path><path d="M171.605 53.4121V99.1663H164.1V67.8296L150.143 99.1663H144.942L130.92 67.8296V99.1663H123.415V53.4121H131.512L147.576 89.2913L163.573 53.4121H171.605Z" fill="black"></path><path d="M460.544 99.7593C457.691 99.7593 455.123 99.2546 452.841 98.2451C450.603 97.1918 448.825 95.7873 447.509 94.0317C446.192 92.2323 445.49 90.2354 445.402 88.041H453.17C453.302 89.5771 454.026 90.8718 455.343 91.9251C456.703 92.9346 458.393 93.4393 460.412 93.4393C462.519 93.4393 464.143 93.0443 465.284 92.2543C466.469 91.4204 467.061 90.367 467.061 89.0942C467.061 87.7337 466.403 86.7243 465.086 86.066C463.813 85.4077 461.773 84.6835 458.964 83.8935C456.243 83.1474 454.026 82.4232 452.315 81.721C450.603 81.0188 449.111 79.9435 447.838 78.4952C446.609 77.0468 445.995 75.1377 445.995 72.7677C445.995 70.8365 446.565 69.0809 447.706 67.5009C448.847 65.877 450.471 64.6042 452.578 63.6825C454.728 62.7609 457.186 62.3 459.951 62.3C464.077 62.3 467.39 63.3534 469.892 65.46C472.438 67.5228 473.798 70.3537 473.974 73.9526H466.469C466.337 72.3287 465.679 71.0339 464.494 70.0684C463.309 69.1028 461.707 68.6201 459.688 68.6201C457.713 68.6201 456.199 68.9931 455.145 69.7392C454.092 70.4853 453.565 71.4728 453.565 72.7017C453.565 73.6673 453.917 74.4793 454.619 75.1377C455.321 75.796 456.177 76.3225 457.186 76.7175C458.196 77.0687 459.688 77.5295 461.663 78.1C464.296 78.8023 466.447 79.5264 468.115 80.2726C469.826 80.9748 471.297 82.0282 472.525 83.4326C473.754 84.8371 474.391 86.7023 474.435 89.0284C474.435 91.0912 473.864 92.9346 472.723 94.5585C471.582 96.1824 469.958 97.4552 467.851 98.3768C465.788 99.2985 463.353 99.7593 460.544 99.7593Z" fill="black"></path><path d="M422.926 62.3C425.779 62.3 428.324 62.8926 430.562 64.0775C432.845 65.2625 434.622 67.0181 435.895 69.3442C437.168 71.6703 437.804 74.4792 437.804 77.7709V99.1668H430.365V78.8901C430.365 75.6423 429.553 73.1625 427.929 71.4509C426.305 69.6953 424.089 68.8175 421.28 68.8175C418.471 68.8175 416.233 69.6953 414.565 71.4509C412.941 73.1625 412.129 75.6423 412.129 78.8901V99.1668H404.624V62.8927H412.129V67.0401C413.358 65.5479 414.916 64.3848 416.803 63.5509C418.734 62.717 420.775 62.3 422.926 62.3Z" fill="black"></path><path d="M391.084 58.0868C389.724 58.0868 388.583 57.6259 387.661 56.7043C386.739 55.7826 386.279 54.6415 386.279 53.2809C386.279 51.9204 386.739 50.7793 387.661 49.8576C388.583 48.9359 389.724 48.4751 391.084 48.4751C392.401 48.4751 393.52 48.9359 394.442 49.8576C395.364 50.7793 395.824 51.9204 395.824 53.2809C395.824 54.6415 395.364 55.7826 394.442 56.7043C393.52 57.6259 392.401 58.0868 391.084 58.0868ZM394.771 62.8926V99.1668H387.266V62.8926H394.771Z" fill="black"></path><path d="M340.147 80.865C340.147 77.2223 340.893 73.9964 342.385 71.1875C343.921 68.3787 345.984 66.2062 348.573 64.67C351.207 63.09 354.103 62.3 357.263 62.3C360.116 62.3 362.596 62.8707 364.702 64.0118C366.853 65.109 368.565 66.4915 369.837 68.1593V62.8927H377.408V99.1668H369.837V93.7685C368.565 95.4802 366.831 96.9064 364.637 98.0476C362.442 99.1887 359.94 99.7593 357.132 99.7593C354.015 99.7593 351.163 98.9692 348.573 97.3892C345.984 95.7653 343.921 93.5271 342.385 90.6743C340.893 87.7777 340.147 84.5078 340.147 80.865ZM369.837 80.9967C369.837 78.4951 369.311 76.3226 368.257 74.4793C367.248 72.636 365.909 71.2314 364.242 70.2659C362.574 69.3003 360.774 68.8175 358.843 68.8175C356.912 68.8175 355.113 69.3003 353.445 70.2659C351.777 71.1876 350.417 72.57 349.363 74.4134C348.354 76.2128 347.849 78.3634 347.849 80.865C347.849 83.3667 348.354 85.5613 349.363 87.4485C350.417 89.3357 351.777 90.784 353.445 91.7935C355.157 92.759 356.956 93.2417 358.843 93.2417C360.774 93.2417 362.574 92.759 364.242 91.7935C365.909 90.8279 367.248 89.4235 368.257 87.5802C369.311 85.6929 369.837 83.4984 369.837 80.9967Z" fill="black"></path><path d="M324.887 68.1593C325.984 66.316 327.433 64.8896 329.232 63.8801C331.075 62.8268 333.248 62.3 335.75 62.3V70.0684H333.84C330.9 70.0684 328.662 70.8146 327.125 72.3068C325.633 73.799 324.887 76.3884 324.887 80.075V99.1668H317.382V62.8927H324.887V68.1593Z" fill="black"></path><path d="M300.405 75.6643C302.863 76.1032 304.947 77.3979 306.659 79.5484C308.371 81.699 309.226 84.1348 309.226 86.8559C309.226 89.182 308.612 91.2887 307.383 93.1759C306.198 95.0193 304.465 96.4895 302.182 97.5868C299.9 98.6401 297.245 99.1668 294.216 99.1668H275.915V53.4126H293.361C296.477 53.4126 299.154 53.9393 301.392 54.9926C303.631 56.0459 305.32 57.4723 306.461 59.2718C307.603 61.0273 308.173 63.0023 308.173 65.1968C308.173 67.8301 307.471 70.0245 306.066 71.7801C304.662 73.5357 302.775 74.8304 300.405 75.6643ZM283.42 72.6359H292.702C295.16 72.6359 297.069 72.0873 298.43 70.9901C299.834 69.849 300.536 68.2251 300.536 66.1184C300.536 64.0557 299.834 62.4537 298.43 61.3126C297.069 60.1276 295.16 59.5351 292.702 59.5351H283.42V72.6359ZM293.558 93.0443C296.104 93.0443 298.101 92.4298 299.549 91.2009C300.997 89.972 301.721 88.2604 301.721 86.0659C301.721 83.8276 300.953 82.0501 299.417 80.7334C297.881 79.4168 295.84 78.7584 293.295 78.7584H283.42V93.0443H293.558Z" fill="black"></path></g><defs><clipPath id="clip0_582_26"><rect width="475" height="100" fill="white"></rect></clipPath></defs></svg>